<?xml version="1.0" encoding="utf-8"?>
<!-- Svg Vector Icons : http://www.onlinewebfonts.com/icon -->
<!DOCTYPE svg PUBLIC "-//W3C//DTD SVG 1.1//EN" "http://www.w3.org/Graphics/SVG/1.1/DTD/svg11.dtd">
<svg version="1.1" xmlns="http://www.w3.org/2000/svg" xmlns:xlink="http://www.w3.org/1999/xlink" x="0px" y="0px" viewBox="0 0 256 256" enable-background="new 0 0 256 256" xml:space="preserve">
<metadata> Svg Vector Icons : http://www.onlinewebfonts.com/icon </metadata>
<g><g><g><path fill="#000000" d="M108.3,157.5l39.3-19.7l-39.3-19.7V157.5z M167.3,66.7V150l-78.6,39.3V106L167.3,66.7z M211.6,128c0-15.2-3.7-29.1-11.2-42c-7.5-12.8-17.6-22.9-30.4-30.4c-12.8-7.5-26.8-11.2-42-11.2c-15.2,0-29.1,3.7-42,11.2S63.1,73.3,55.6,86c-7.5,12.8-11.2,26.8-11.2,42s3.7,29.1,11.2,42c7.5,12.8,17.6,23,30.4,30.4s26.8,11.2,42,11.2c15.2,0,29.1-3.7,42-11.2c12.8-7.5,22.9-17.6,30.4-30.4C207.9,157.1,211.6,143.2,211.6,128z M246,128c0,21.4-5.3,41.2-15.8,59.2c-10.5,18.1-24.9,32.4-42.9,42.9C169.2,240.7,149.4,246,128,246c-21.4,0-41.2-5.3-59.2-15.8c-18.1-10.5-32.4-24.9-42.9-42.9C15.3,169.2,10,149.4,10,128c0-21.4,5.3-41.2,15.8-59.2c10.5-18.1,24.9-32.4,42.9-42.9C86.8,15.3,106.6,10,128,10c21.4,0,41.2,5.3,59.2,15.8c18.1,10.5,32.4,24.9,42.9,42.9C240.7,86.8,246,106.6,246,128z"/></g></g></g>
</svg>