<?xml version="1.0" encoding="utf-8"?>
<!-- Svg Vector Icons : http://www.onlinewebfonts.com/icon -->
<!DOCTYPE svg PUBLIC "-//W3C//DTD SVG 1.1//EN" "http://www.w3.org/Graphics/SVG/1.1/DTD/svg11.dtd">
<svg version="1.1" xmlns="http://www.w3.org/2000/svg" xmlns:xlink="http://www.w3.org/1999/xlink" x="0px" y="0px" viewBox="0 0 256 256" enable-background="new 0 0 256 256" xml:space="preserve">
<metadata> Svg Vector Icons : http://www.onlinewebfonts.com/icon </metadata>
<g><g><g><path fill="#000000" d="M223.7,194.9c-3.8-2.8-7.1-6-10-9.5c-2.9-3.5-5.3-7.3-7.4-11.3c-2-4-3.5-8.2-4.6-12.7s-1.6-9-1.6-13.7v-39.3c0-8.3-1.3-16.1-4-23.6c-2.7-7.4-6.3-14.2-11-20.3c-4.6-6.1-10.2-11.3-16.6-15.8c-6.4-4.4-13.4-7.7-21-9.8v-9.3c0-5.4-1.9-10-5.8-13.8c-3.9-3.9-8.5-5.8-13.8-5.8c-5.5,0-10.1,1.9-14,5.8c-3.9,3.9-5.8,8.5-5.8,13.8v9.3c-7.5,2.1-14.5,5.4-20.9,9.8c-6.4,4.4-11.9,9.7-16.6,15.8c-4.7,6.1-8.4,12.9-11,20.3c-2.6,7.4-3.9,15.3-3.9,23.6v39.3c0,4.7-0.5,9.3-1.6,13.7s-2.6,8.7-4.6,12.7c-2,4-4.5,7.8-7.4,11.3c-2.9,3.5-6.3,6.7-10,9.5c-1.1,0.8-1.9,2-2.3,3.3c-0.4,1.3-0.4,2.7,0,4c0.5,1.4,1.3,2.5,2.4,3.3c1.1,0.8,2.4,1.2,3.9,1.2h59.7c-0.3,1-0.4,2.1-0.5,3.2c-0.1,1.1-0.1,2.2-0.1,3.3c0,4.5,0.8,8.8,2.6,12.7c1.7,4,4,7.4,7,10.4c3,3,6.5,5.3,10.4,7c4,1.7,8.2,2.6,12.7,2.6c4.5,0,8.8-0.8,12.7-2.6c4-1.7,7.4-4,10.4-7c3-3,5.3-6.5,7-10.4c1.7-4,2.6-8.2,2.6-12.7c0-1.1-0.1-2.2-0.2-3.3c-0.1-1.1-0.3-2.2-0.5-3.2h59.7c1.4,0,2.6-0.4,3.8-1.2c1.2-0.8,2-1.9,2.4-3.3c0.4-1.4,0.5-2.7,0.1-4C225.7,196.8,224.9,195.8,223.7,194.9L223.7,194.9z M121.5,29.6c0-1.8,0.7-3.3,1.9-4.6c1.3-1.3,2.8-1.9,4.6-1.9s3.3,0.7,4.6,1.9c1.3,1.3,1.9,2.8,1.9,4.6v6.9c-1.1-0.1-2.2-0.1-3.3-0.2c-1.1,0-2.2-0.1-3.3-0.1c-1.1,0-2.2,0-3.3,0.1c-1.1,0-2.2,0.1-3.2,0.2L121.5,29.6L121.5,29.6z M147.7,213.2c0,5.5-1.9,10.1-5.8,14c-3.9,3.9-8.5,5.8-13.8,5.8c-5.5,0-10.1-1.9-14-5.8c-3.9-3.9-5.8-8.5-5.8-14c0-1.1,0.1-2.2,0.3-3.3c0.2-1.1,0.5-2.2,0.8-3.2h37.1c0.3,1,0.6,2.1,0.8,3.2C147.6,211,147.7,212.1,147.7,213.2L147.7,213.2z M52.5,193.5c1.7-2,3.3-4,4.7-6.3c1.4-2.2,2.8-4.5,4-6.8c2.6-5.1,4.5-10.4,5.8-15.9s2-11.1,2-16.9v-39.3c0-8.1,1.6-15.8,4.7-22.9C76.8,78.2,81,72,86.4,66.6c5.3-5.3,11.6-9.6,18.8-12.7c7.2-3.1,14.8-4.7,22.9-4.7s15.8,1.6,22.9,4.7c7.2,3.1,13.4,7.3,18.8,12.7c5.3,5.3,9.6,11.6,12.7,18.8c3.1,7.2,4.7,14.8,4.7,22.9v39.3c0,5.8,0.7,11.4,1.9,16.9c1.3,5.5,3.3,10.8,5.9,15.9c1.2,2.3,2.5,4.6,4,6.8c1.4,2.2,3,4.3,4.6,6.3H52.5L52.5,193.5z"/></g></g></g>
</svg>